<svg width="25" height="24" viewBox="0 0 25 24" fill="none" xmlns="http://www.w3.org/2000/svg">
<path fill-rule="evenodd" clip-rule="evenodd" d="M8.25 9.75H5.5C4.395 9.75 3.5 8.855 3.5 7.75V5C3.5 3.895 4.395 3 5.5 3H8.25C9.355 3 10.25 3.895 10.25 5V7.75C10.25 8.855 9.355 9.75 8.25 9.75Z" fill="#151603" stroke="#151603" stroke-width="1.5" stroke-linecap="round" stroke-linejoin="round"/>
<path fill-rule="evenodd" clip-rule="evenodd" d="M19.5 9.75H16.75C15.645 9.75 14.75 8.855 14.75 7.75V5C14.75 3.895 15.645 3 16.75 3H19.5C20.605 3 21.5 3.895 21.5 5V7.75C21.5 8.855 20.605 9.75 19.5 9.75Z" fill="#151603" stroke="#151603" stroke-width="1.5" stroke-linecap="round" stroke-linejoin="round"/>
<path fill-rule="evenodd" clip-rule="evenodd" d="M8.25 21H5.5C4.395 21 3.5 20.105 3.5 19V16.25C3.5 15.145 4.395 14.25 5.5 14.25H8.25C9.355 14.25 10.25 15.145 10.25 16.25V19C10.25 20.105 9.355 21 8.25 21Z" fill="#151603" stroke="#151603" stroke-width="1.5" stroke-linecap="round" stroke-linejoin="round"/>
<path fill-rule="evenodd" clip-rule="evenodd" d="M19.5 21H16.75C15.645 21 14.75 20.105 14.75 19V16.25C14.75 15.145 15.645 14.25 16.75 14.25H19.5C20.605 14.25 21.5 15.145 21.5 16.25V19C21.5 20.105 20.605 21 19.5 21Z" fill="#151603" stroke="#151603" stroke-width="1.5" stroke-linecap="round" stroke-linejoin="round"/>
</svg>
