<svg width="25" height="24" viewBox="0 0 25 24" fill="none" xmlns="http://www.w3.org/2000/svg">
<path fill-rule="evenodd" clip-rule="evenodd" d="M21.25 5V7.75C21.25 8.855 20.355 9.75 19.25 9.75H5.25C4.145 9.75 3.25 8.855 3.25 7.75V5C3.25 3.895 4.145 3 5.25 3H19.25C20.355 3 21.25 3.895 21.25 5Z" stroke="white" stroke-width="1.5" stroke-linecap="round" stroke-linejoin="round"/>
<path fill-rule="evenodd" clip-rule="evenodd" d="M21.25 16.25V19C21.25 20.105 20.355 21 19.25 21H5.25C4.145 21 3.25 20.105 3.25 19V16.25C3.25 15.145 4.145 14.25 5.25 14.25H19.25C20.355 14.25 21.25 15.145 21.25 16.25Z" stroke="white" stroke-width="1.5" stroke-linecap="round" stroke-linejoin="round"/>
</svg>
