<svg width="24" height="24" viewBox="0 0 24 24" fill="none" xmlns="http://www.w3.org/2000/svg">
<path d="M10.4211 14.897C9.54909 14.025 9.54909 12.611 10.4211 11.739C11.2931 10.867 12.7071 10.867 13.5791 11.739C14.4511 12.611 14.4511 14.025 13.5791 14.897" stroke="white" stroke-width="1.5" stroke-linecap="round" stroke-linejoin="round"/>
<path d="M8.111 17.2074C5.963 15.0594 5.963 11.5774 8.111 9.42936C10.259 7.28136 13.741 7.28136 15.889 9.42936C18.037 11.5774 18.037 15.0594 15.889 17.2074" stroke="white" stroke-width="1.5" stroke-linecap="round" stroke-linejoin="round"/>
<path d="M5.63601 19.6816C2.12101 16.1666 2.12101 10.4686 5.63601 6.95363C9.15101 3.43863 14.849 3.43863 18.364 6.95363C21.879 10.4686 21.879 16.1666 18.364 19.6816" stroke="white" stroke-width="1.5" stroke-linecap="round" stroke-linejoin="round"/>
</svg>
