<svg width="25" height="24" viewBox="0 0 25 24" fill="none" xmlns="http://www.w3.org/2000/svg">
<path d="M21.2539 15.6709V18.8922" stroke="white" stroke-width="1.5" stroke-linecap="round" stroke-linejoin="round"/>
<path d="M21.253 7.27476V10.4961H21.254C20.7873 10.4019 20.3039 10.4333 19.8534 10.5871C19.016 10.8734 18.3807 11.5645 18.1657 12.4229C17.9635 13.214 18.1379 14.0541 18.6384 14.6993C19.1388 15.3445 19.9092 15.7224 20.7257 15.7233C20.9031 15.723 21.0801 15.7052 21.254 15.6703V18.8916C21.254 19.4517 21.0315 19.9889 20.6355 20.385C20.2394 20.781 19.7022 21.0035 19.1421 21.0035H15.9207V21.0045C16.0149 20.5378 15.9835 20.0545 15.8297 19.6039C15.5434 18.7665 14.8524 18.1312 13.9939 17.9162C13.2028 17.714 12.3627 17.8884 11.7175 18.3889C11.0723 18.8894 10.6944 19.6597 10.6936 20.4763C10.6939 20.6536 10.7116 20.8306 10.7466 21.0045L7.52624 21.0035C6.36019 21.0037 5.41471 20.0586 5.41436 18.8926V15.6713C5.24046 15.7062 5.06353 15.724 4.88614 15.7243C4.06961 15.7234 3.29924 15.3455 2.79878 14.7003C2.29832 14.0551 2.12386 13.215 2.32608 12.4239C2.54111 11.5655 3.17641 10.8744 4.01378 10.5881C4.46435 10.4343 4.94768 10.4029 5.41436 10.4971H5.41336V7.27576C5.41332 6.71564 5.63581 6.17845 6.03187 5.78238C6.42794 5.38632 6.96513 5.16383 7.52524 5.16388H10.7466C10.7116 4.98997 10.6939 4.81304 10.6936 4.63566C10.6944 3.81913 11.0723 3.04876 11.7175 2.5483C12.3627 2.04783 13.2028 1.87338 13.9939 2.07559C14.852 2.29123 15.5428 2.9263 15.8297 3.76329C15.9835 4.21386 16.0149 4.69719 15.9207 5.16388H19.1421C19.7022 5.16383 20.2394 5.38632 20.6355 5.78238C21.0315 6.17845 21.254 6.71564 21.254 7.27576" stroke="white" stroke-width="1.5" stroke-linecap="round" stroke-linejoin="round"/>
</svg>
