<svg width="31" height="30" viewBox="0 0 31 30" fill="none" xmlns="http://www.w3.org/2000/svg">
<path fill-rule="evenodd" clip-rule="evenodd" d="M10.1875 12.1875H6.75C5.36875 12.1875 4.25 11.0688 4.25 9.6875V6.25C4.25 4.86875 5.36875 3.75 6.75 3.75H10.1875C11.5688 3.75 12.6875 4.86875 12.6875 6.25V9.6875C12.6875 11.0688 11.5688 12.1875 10.1875 12.1875Z" fill="#151603" stroke="#151603" stroke-width="1.875" stroke-linecap="round" stroke-linejoin="round"/>
<path fill-rule="evenodd" clip-rule="evenodd" d="M24.25 12.1875H20.8125C19.4312 12.1875 18.3125 11.0688 18.3125 9.6875V6.25C18.3125 4.86875 19.4312 3.75 20.8125 3.75H24.25C25.6313 3.75 26.75 4.86875 26.75 6.25V9.6875C26.75 11.0688 25.6313 12.1875 24.25 12.1875Z" fill="#151603" stroke="#151603" stroke-width="1.875" stroke-linecap="round" stroke-linejoin="round"/>
<path fill-rule="evenodd" clip-rule="evenodd" d="M10.1875 26.25H6.75C5.36875 26.25 4.25 25.1313 4.25 23.75V20.3125C4.25 18.9312 5.36875 17.8125 6.75 17.8125H10.1875C11.5688 17.8125 12.6875 18.9312 12.6875 20.3125V23.75C12.6875 25.1313 11.5688 26.25 10.1875 26.25Z" fill="#151603" stroke="#151603" stroke-width="1.875" stroke-linecap="round" stroke-linejoin="round"/>
<path fill-rule="evenodd" clip-rule="evenodd" d="M24.25 26.25H20.8125C19.4312 26.25 18.3125 25.1313 18.3125 23.75V20.3125C18.3125 18.9312 19.4312 17.8125 20.8125 17.8125H24.25C25.6313 17.8125 26.75 18.9312 26.75 20.3125V23.75C26.75 25.1313 25.6313 26.25 24.25 26.25Z" fill="#151603" stroke="#151603" stroke-width="1.875" stroke-linecap="round" stroke-linejoin="round"/>
</svg>
