<svg width="25" height="24" viewBox="0 0 25 24" fill="none" xmlns="http://www.w3.org/2000/svg">
<path d="M21.2539 15.6705V18.8919" stroke="white" stroke-width="1.5" stroke-linecap="round" stroke-linejoin="round"/>
<path d="M21.253 7.275V10.4963H21.254C20.7873 10.4022 20.3039 10.4336 19.8534 10.5874C19.016 10.8737 18.3807 11.5647 18.1657 12.4231C17.9635 13.2142 18.1379 14.0544 18.6384 14.6996C19.1388 15.3447 19.9092 15.7227 20.7257 15.7235C20.9031 15.7232 21.0801 15.7055 21.254 15.6705V18.8918C21.254 19.452 21.0315 19.9891 20.6355 20.3852C20.2394 20.7813 19.7022 21.0038 19.1421 21.0037H15.9207V21.0047C16.0149 20.538 15.9835 20.0547 15.8297 19.6041C15.5434 18.7668 14.8524 18.1315 13.9939 17.9164C13.2028 17.7142 12.3627 17.8887 11.7175 18.3891C11.0723 18.8896 10.6944 19.66 10.6936 20.4765C10.6939 20.6539 10.7116 20.8308 10.7466 21.0047L7.52624 21.0037C6.36019 21.0039 5.41471 20.0589 5.41436 18.8928V15.6715C5.24046 15.7065 5.06353 15.7242 4.88614 15.7245C4.06961 15.7237 3.29924 15.3458 2.79878 14.7006C2.29832 14.0554 2.12386 13.2152 2.32608 12.4241C2.54111 11.5657 3.17641 10.8747 4.01378 10.5884C4.46435 10.4346 4.94768 10.4032 5.41436 10.4973H5.41336V7.276C5.41332 6.71588 5.63581 6.17869 6.03187 5.78263C6.42794 5.38657 6.96513 5.16408 7.52524 5.16412H10.7466C10.7116 4.99021 10.6939 4.81329 10.6936 4.6359C10.6944 3.81937 11.0723 3.049 11.7175 2.54854C12.3627 2.04808 13.2028 1.87362 13.9939 2.07583C14.852 2.29148 15.5428 2.92655 15.8297 3.76354C15.9835 4.2141 16.0149 4.69743 15.9207 5.16412H19.1421C19.7022 5.16408 20.2394 5.38657 20.6355 5.78263C21.0315 6.17869 21.254 6.71588 21.254 7.276" stroke="white" stroke-width="1.5" stroke-linecap="round" stroke-linejoin="round"/>
</svg>
