<svg width="24" height="24" viewBox="0 0 24 24" fill="none" xmlns="http://www.w3.org/2000/svg">
<path fill-rule="evenodd" clip-rule="evenodd" d="M6.00247 21.0092H4.00164C3.44912 21.0092 3.00122 20.5613 3.00122 20.0088V14.0063C3.00122 13.4538 3.44912 13.0059 4.00164 13.0059H6.00247C6.55499 13.0059 7.00289 13.4538 7.00289 14.0063V20.0088C7.00289 20.5613 6.55499 21.0092 6.00247 21.0092Z" stroke="white" stroke-width="1.5" stroke-linecap="round" stroke-linejoin="round"/>
<path d="M13.0054 17.0075H15.3394C15.7723 17.0075 16.1936 16.8671 16.5399 16.6073L18.9569 14.7946C19.5605 14.3416 20.4054 14.4018 20.9387 14.9356V14.9356C21.223 15.2195 21.3827 15.6048 21.3827 16.0066C21.3827 16.4083 21.223 16.7936 20.9387 17.0775V17.0775L18.8639 19.1514C18.3052 19.71 17.5937 20.0909 16.819 20.2458L13.8878 20.8321C13.3067 20.9482 12.707 20.9339 12.1321 20.7901L9.48096 20.1278C9.16397 20.0483 8.83836 20.0083 8.51156 20.0087H7.00293" stroke="white" stroke-width="1.5" stroke-linecap="round" stroke-linejoin="round"/>
<path d="M13.0054 17.0075H14.491C15.3281 17.0075 16.0067 16.329 16.0067 15.4919V15.4919V15.1918C16.0067 14.4966 15.5336 13.8907 14.8592 13.7222L12.5662 13.1479C12.1937 13.0542 11.811 13.0065 11.4268 13.0059V13.0059C10.4991 13.0059 9.59217 13.2809 8.82069 13.7962L7.00293 15.0067" stroke="white" stroke-width="1.5" stroke-linecap="round" stroke-linejoin="round"/>
<path fill-rule="evenodd" clip-rule="evenodd" d="M16.7369 4.46021C16.8911 4.17884 17.1864 4.00391 17.5073 4.00391C17.8281 4.00391 18.1234 4.17884 18.2776 4.46021L18.9579 5.70273C19.0389 5.85034 19.1604 5.9718 19.308 6.05288L20.5515 6.73216C20.8335 6.88588 21.0089 7.18135 21.0089 7.50248C21.0089 7.82361 20.8335 8.11909 20.5515 8.2728L19.308 8.95509C19.16 9.03522 19.0384 9.15648 18.9579 9.30423L18.2776 10.5467C18.1234 10.8281 17.8281 11.0031 17.5073 11.0031C17.1864 11.0031 16.8911 10.8281 16.7369 10.5467L16.0566 9.30423C15.9764 9.15597 15.8548 9.0343 15.7065 8.95409L14.464 8.2738C14.182 8.12009 14.0066 7.82461 14.0066 7.50348C14.0066 7.18235 14.182 6.88688 14.464 6.73316L15.7065 6.05388C15.8543 5.97307 15.9758 5.85154 16.0566 5.70373L16.7369 4.46021Z" stroke="white" stroke-width="1.5" stroke-linecap="round" stroke-linejoin="round"/>
<path fill-rule="evenodd" clip-rule="evenodd" d="M7.95343 3.32696C8.06393 3.12647 8.27473 3.00195 8.50366 3.00195C8.73258 3.00195 8.94339 3.12647 9.05389 3.32696L9.53909 4.21533C9.59674 4.32097 9.68356 4.40779 9.78919 4.46544L10.6776 4.95064C10.8786 5.06069 11.0037 5.27166 11.0037 5.50087C11.0037 5.73008 10.8786 5.94105 10.6776 6.0511L9.78919 6.5373C9.68356 6.59495 9.59674 6.68177 9.53909 6.78741L9.05389 7.67478C8.94383 7.87584 8.73287 8.00086 8.50366 8.00086C8.27444 8.00086 8.06348 7.87584 7.95343 7.67478L7.46723 6.78641C7.41018 6.68032 7.32321 6.59334 7.21712 6.5363L6.32975 6.0511C6.12869 5.94105 6.00366 5.73008 6.00366 5.50087C6.00366 5.27166 6.12869 5.06069 6.32975 4.95064L7.21712 4.46544C7.323 4.40811 7.4099 4.32121 7.46723 4.21533L7.95343 3.32696Z" stroke="white" stroke-width="1.5" stroke-linecap="round" stroke-linejoin="round"/>
</svg>
