<svg width="24" height="24" viewBox="0 0 24 24" fill="none" xmlns="http://www.w3.org/2000/svg">
<path fill-rule="evenodd" clip-rule="evenodd" d="M6.00271 21.0043H4.00188C3.44937 21.0043 3.00146 20.5564 3.00146 20.0039V14.0014C3.00146 13.4489 3.44937 13.001 4.00188 13.001H6.00271C6.55523 13.001 7.00313 13.4489 7.00313 14.0014V20.0039C7.00313 20.5564 6.55523 21.0043 6.00271 21.0043Z" fill="#EBFF29" stroke="#EBFF29" stroke-width="1.5" stroke-linecap="round" stroke-linejoin="round"/>
<path d="M13.0054 17.0026H15.3394C15.7723 17.0026 16.1936 16.8622 16.5399 16.6024L18.9569 14.7897C19.5605 14.3368 20.4054 14.3969 20.9387 14.9307V14.9307C21.223 15.2146 21.3827 15.5999 21.3827 16.0017C21.3827 16.4034 21.223 16.7887 20.9387 17.0726V17.0726L18.8639 19.1465C18.3052 19.7052 17.5937 20.086 16.819 20.2409L13.8878 20.8272C13.3067 20.9434 12.707 20.929 12.1321 20.7852L9.48096 20.1229C9.16397 20.0434 8.83836 20.0034 8.51156 20.0038H7.00293" stroke="#EBFF29" stroke-width="1.5" stroke-linecap="round" stroke-linejoin="round"/>
<path d="M13.0054 17.0026H14.491C15.3281 17.0026 16.0067 16.3241 16.0067 15.487V15.487V15.1869C16.0067 14.4917 15.5336 13.8858 14.8592 13.7173L12.5662 13.143C12.1937 13.0493 11.811 13.0016 11.4268 13.001V13.001C10.4991 13.001 9.59217 13.2761 8.82069 13.7913L7.00293 15.0018" stroke="#EBFF29" stroke-width="1.5" stroke-linecap="round" stroke-linejoin="round"/>
<path fill-rule="evenodd" clip-rule="evenodd" d="M16.7372 4.45533C16.8913 4.17396 17.1867 3.99902 17.5075 3.99902C17.8283 3.99902 18.1237 4.17396 18.2778 4.45533L18.9581 5.69785C19.0392 5.84546 19.1606 5.96691 19.3082 6.048L20.5518 6.72728C20.8337 6.881 21.0092 7.17647 21.0092 7.4976C21.0092 7.81873 20.8337 8.1142 20.5518 8.26792L19.3082 8.9502C19.1603 9.03033 19.0387 9.1516 18.9581 9.29935L18.2778 10.5419C18.1237 10.8232 17.8283 10.9982 17.5075 10.9982C17.1867 10.9982 16.8913 10.8232 16.7372 10.5419L16.0569 9.29935C15.9767 9.15109 15.855 9.02941 15.7067 8.9492L14.4642 8.26892C14.1823 8.1152 14.0068 7.81973 14.0068 7.4986C14.0068 7.17747 14.1823 6.882 14.4642 6.72828L15.7067 6.049C15.8546 5.96818 15.9761 5.84666 16.0569 5.69885L16.7372 4.45533Z" fill="#EBFF29" stroke="#EBFF29" stroke-width="1.5" stroke-linecap="round" stroke-linejoin="round"/>
<path fill-rule="evenodd" clip-rule="evenodd" d="M7.95318 3.32208C8.06368 3.12159 8.27449 2.99707 8.50341 2.99707C8.73234 2.99707 8.94314 3.12159 9.05364 3.32208L9.53884 4.21045C9.59649 4.31609 9.68331 4.40291 9.78895 4.46056L10.6773 4.94576C10.8784 5.05581 11.0034 5.26677 11.0034 5.49599C11.0034 5.7252 10.8784 5.93616 10.6773 6.04622L9.78895 6.53242C9.68331 6.59007 9.59649 6.67689 9.53884 6.78252L9.05364 7.66989C8.94359 7.87096 8.73263 7.99598 8.50341 7.99598C8.2742 7.99598 8.06324 7.87096 7.95318 7.66989L7.46698 6.78152C7.40994 6.67544 7.32296 6.58846 7.21688 6.53142L6.32951 6.04622C6.12844 5.93616 6.00342 5.7252 6.00342 5.49599C6.00342 5.26677 6.12844 5.05581 6.32951 4.94576L7.21688 4.46056C7.32275 4.40323 7.40965 4.31633 7.46698 4.21045L7.95318 3.32208Z" fill="#EBFF29" stroke="#EBFF29" stroke-width="1.5" stroke-linecap="round" stroke-linejoin="round"/>
</svg>
