<svg width="105" height="103" viewBox="0 0 105 103" fill="none" xmlns="http://www.w3.org/2000/svg">
<path d="M49.8376 1.55514C51.4147 0.109463 53.8353 0.109462 55.4124 1.55514L70.0821 15.0026C70.6807 15.5513 71.4279 15.9111 72.2301 16.037L91.8901 19.1219C94.0037 19.4535 95.5129 21.3461 95.366 23.4804L93.9987 43.334C93.9429 44.1441 94.1275 44.9527 94.5292 45.6583L104.375 62.9526C105.434 64.8118 104.895 67.1717 103.135 68.3876L86.7601 79.6972C86.092 80.1586 85.5749 80.807 85.2737 81.5611L77.8913 100.042C77.0977 102.029 74.9168 103.079 72.8686 102.461L53.817 96.7098C53.0397 96.4752 52.2103 96.4752 51.433 96.7098L32.3814 102.461C30.3332 103.079 28.1523 102.029 27.3587 100.042L19.9763 81.5611C19.6751 80.807 19.158 80.1586 18.4899 79.6972L2.1153 68.3876C0.354929 67.1717 -0.183709 64.8118 0.87479 62.9526L10.7208 45.6583C11.1225 44.9527 11.307 44.1441 11.2513 43.334L9.88405 23.4804C9.73707 21.3461 11.2463 19.4535 13.3599 19.1219L33.0199 16.037C33.8221 15.9111 34.5693 15.5513 35.1679 15.0026L49.8376 1.55514Z" fill="#EC336A"/>
</svg>
