<svg width="60" height="60" viewBox="0 0 60 60" fill="none" xmlns="http://www.w3.org/2000/svg">
<rect width="60" height="60" rx="10" fill="white"/>
<path d="M48.4615 11.1234L32.4585 23.0091L35.4178 15.9967L48.4615 11.1234Z" fill="#E2761B" stroke="#E2761B" stroke-width="0.410127" stroke-linecap="round" stroke-linejoin="round"/>
<path d="M11.5185 11.1234L27.3928 23.1216L24.5782 15.9967L11.5185 11.1234ZM42.7042 38.6743L38.4421 45.2042L47.5614 47.7132L50.183 38.819L42.7042 38.6743ZM9.82971 38.819L12.4352 47.7132L21.5545 45.2042L17.2924 38.6743L9.82971 38.819Z" fill="#E4761B" stroke="#E4761B" stroke-width="0.410127" stroke-linecap="round" stroke-linejoin="round"/>
<path d="M21.038 27.6412L18.4968 31.4851L27.5518 31.8872L27.2301 22.1567L21.038 27.6412ZM38.9388 27.6412L32.6663 22.0441L32.4572 31.8872L41.4961 31.4851L38.9388 27.6412ZM21.5527 45.2042L26.9889 42.5505L22.2925 38.8835L21.5527 45.2042ZM32.988 42.5505L38.4402 45.2042L37.6843 38.8835L32.988 42.5505Z" fill="#E4761B" stroke="#E4761B" stroke-width="0.410127" stroke-linecap="round" stroke-linejoin="round"/>
<path d="M38.4407 45.2043L32.9884 42.5505L33.4226 46.1049L33.3744 47.6007L38.4407 45.2043ZM21.5531 45.2043L26.6194 47.6007L26.5872 46.1049L26.9893 42.5505L21.5531 45.2043Z" fill="#D7C1B3" stroke="#D7C1B3" stroke-width="0.410127" stroke-linecap="round" stroke-linejoin="round"/>
<path d="M26.7026 36.5352L22.1671 35.2003L25.3677 33.7367L26.7026 36.5352ZM33.2807 36.5352L34.6157 33.7367L37.8323 35.2003L33.2807 36.5352Z" fill="#233447" stroke="#233447" stroke-width="0.410127" stroke-linecap="round" stroke-linejoin="round"/>
<path d="M21.5567 45.2042L22.3287 38.6743L17.2946 38.8191L21.5567 45.2042ZM37.6722 38.6743L38.4442 45.2042L42.7063 38.8191L37.6722 38.6743ZM41.5001 31.4851L32.4612 31.8871L33.2975 36.5352L34.6325 33.7367L37.8491 35.2003L41.5001 31.4851ZM22.1678 35.2003L25.3845 33.7367L26.7033 36.5352L27.5558 31.8871L18.5008 31.4851L22.1678 35.2003Z" fill="#CD6116" stroke="#CD6116" stroke-width="0.410127" stroke-linecap="round" stroke-linejoin="round"/>
<path d="M18.4968 31.4851L22.2925 38.8834L22.1638 35.2003L18.4968 31.4851ZM37.8452 35.2003L37.6843 38.8834L41.4961 31.4851L37.8452 35.2003ZM27.5518 31.8871L26.6994 36.5352L27.7609 42.0197L28.0021 34.7982L27.5518 31.8871ZM32.4572 31.8871L32.023 34.7822L32.216 42.0197L33.2936 36.5352L32.4572 31.8871Z" fill="#E4751F" stroke="#E4751F" stroke-width="0.410127" stroke-linecap="round" stroke-linejoin="round"/>
<path d="M33.2968 36.5353L32.2192 42.0197L32.9912 42.5505L37.6876 38.8834L37.8484 35.2003L33.2968 36.5353ZM22.1671 35.2003L22.2958 38.8834L26.9921 42.5505L27.7641 42.0197L26.7026 36.5353L22.1671 35.2003Z" fill="#F6851B" stroke="#F6851B" stroke-width="0.410127" stroke-linecap="round" stroke-linejoin="round"/>
<path d="M33.3744 47.6006L33.4226 46.1049L33.0206 45.751H26.9571L26.5872 46.1049L26.6194 47.6006L21.5531 45.2042L23.3223 46.6517L26.9089 49.1446H33.0688L36.6715 46.6517L38.4407 45.2042L33.3744 47.6006Z" fill="#C0AD9E" stroke="#C0AD9E" stroke-width="0.410127" stroke-linecap="round" stroke-linejoin="round"/>
<path d="M32.9886 42.5505L32.2166 42.0198H27.7615L26.9895 42.5505L26.5874 46.105L26.9573 45.7511H33.0208L33.4228 46.105L32.9886 42.5505Z" fill="#161616" stroke="#161616" stroke-width="0.410127" stroke-linecap="round" stroke-linejoin="round"/>
<path d="M49.1378 23.7811L50.5048 17.219L48.4623 11.1234L32.99 22.607L38.9409 27.6411L47.3525 30.1018L49.2182 27.9306L48.414 27.3516L49.7007 26.1775L48.7035 25.4055L49.9902 24.4244L49.1378 23.7811ZM9.49219 17.219L10.8593 23.7811L9.99077 24.4244L11.2774 25.4055L10.2964 26.1775L11.583 27.3516L10.7789 27.9306L12.6284 30.1018L21.0401 27.6411L26.9909 22.607L11.5187 11.1234L9.49219 17.219Z" fill="#763D16" stroke="#763D16" stroke-width="0.410127" stroke-linecap="round" stroke-linejoin="round"/>
<path d="M47.3523 30.1018L38.9407 27.6411L41.4979 31.485L37.6862 38.8834L42.7042 38.819H50.183L47.3523 30.1018ZM21.0398 27.6411L12.6282 30.1018L9.82971 38.819H17.2924L22.2943 38.8834L18.4987 31.485L21.0398 27.6411ZM32.4591 31.8871L32.9898 22.607L35.4345 15.9967H24.5782L26.9907 22.607L27.5536 31.8871L27.7466 34.8143L27.7627 42.0196H32.2178L32.25 34.8143L32.4591 31.8871Z" fill="#F6851B" stroke="#F6851B" stroke-width="0.410127" stroke-linecap="round" stroke-linejoin="round"/>
</svg>
