<svg width="60" height="60" viewBox="0 0 60 60" fill="none" xmlns="http://www.w3.org/2000/svg">
<rect width="60" height="60" rx="10" fill="#2980FE"/>
<path d="M15.5264 24.3903V42.0599C15.5264 42.77 16.1036 43.3472 16.8137 43.3472H22.2821C22.9922 43.3472 23.5694 42.77 23.5694 42.0599V24.3903H25.7378C27.8605 24.3903 29.577 22.67 29.577 20.551C29.577 18.4282 27.8567 16.7118 25.7378 16.7118H10.7795C10.0694 16.708 9.49219 17.2852 9.49219 17.9953V23.0839C9.49219 23.7941 10.0656 24.3713 10.7757 24.3713L15.5264 24.3865V24.3903Z" fill="white"/>
<path d="M47.7589 19.7962C45.8526 17.8899 43.2172 16.7089 40.3045 16.7089H40.126C34.3007 16.7089 29.5804 21.4291 29.5804 27.2507V42.0532C29.5804 42.7671 30.1615 43.3481 30.8792 43.3481H36.7083C37.4222 43.3481 38.0032 42.7671 38.0032 42.0532V37.7962H40.3045C46.126 37.7962 50.8463 33.076 50.8463 27.2507C50.8463 24.338 49.6653 21.7026 47.7589 19.7962ZM40.2134 29.6621C38.8918 29.6621 37.8209 28.5912 37.8209 27.2696C37.8209 25.9481 38.8918 24.8772 40.2134 24.8772C41.5349 24.8772 42.6058 25.9481 42.6058 27.2696C42.6058 28.5912 41.5349 29.6621 40.2134 29.6621Z" fill="white"/>
</svg>
