<svg width="60" height="60" viewBox="0 0 60 60" fill="none" xmlns="http://www.w3.org/2000/svg">
<rect width="60" height="60" rx="12" fill="white"/>
<path fill-rule="evenodd" clip-rule="evenodd" d="M28.7538 10.4456C29.4693 9.85146 30.5099 9.85147 31.2254 10.4456C36.4656 14.7972 42.441 14.7636 44.7538 14.7505C44.8693 14.7499 44.9756 14.7493 45.0722 14.7493C45.5885 14.7493 46.0833 14.9552 46.4456 15.3209C46.8079 15.6866 47.0076 16.1816 46.9998 16.6949C46.8903 23.9068 46.5996 29.0541 46.029 32.8266C45.4588 36.5967 44.5845 39.1806 43.1756 41.1273C41.7568 43.0878 39.9332 44.2009 37.9915 45.2678C37.6551 45.4526 37.312 45.6376 36.9609 45.827C35.2564 46.7462 33.3619 47.7679 31.1133 49.3717C30.4416 49.8508 29.5376 49.8508 28.8659 49.3718C26.6194 47.7695 24.7273 46.7483 23.0255 45.8298C22.6727 45.6393 22.328 45.4533 21.99 45.2674C20.0497 44.2002 18.2286 43.0867 16.8125 41.1256C15.4068 39.1787 14.5355 36.595 13.9675 32.8255C13.3991 29.0535 13.1097 23.9066 13.0002 16.6949C12.9924 16.1816 13.1921 15.6866 13.5544 15.3209C13.9167 14.9552 14.4115 14.7493 14.9278 14.7493C15.0233 14.7493 15.1286 14.7499 15.243 14.7505C17.5368 14.7636 23.5129 14.7976 28.7538 10.4456ZM16.8902 18.5707C17.0196 24.7175 17.301 29.0757 17.7805 32.2575C18.3092 35.7659 19.0541 37.6568 19.9446 38.89C20.8247 40.1089 21.9798 40.8809 23.8564 41.9131C24.162 42.0812 24.4844 42.255 24.823 42.4375C26.2663 43.2157 28.0035 44.1523 29.9896 45.4807C31.9784 44.1506 33.7183 43.2133 35.164 42.4345C35.501 42.2529 35.8221 42.08 36.1266 41.9127C38.0056 40.8802 39.1634 40.1079 40.046 38.8883C40.9386 37.655 41.6858 35.7642 42.2163 32.2565C42.6975 29.0752 42.9801 24.7174 43.1098 18.571C40.1419 18.4759 34.9153 17.8667 29.9896 14.3413C25.0697 17.8624 19.8506 18.4744 16.8902 18.5707Z" fill="#3375BB"/>
</svg>
