<svg width="60" height="60" viewBox="0 0 60 60" fill="none" xmlns="http://www.w3.org/2000/svg">
<rect width="60" height="60" rx="10" fill="#398BFA"/>
<path d="M16.7727 21.6736C24.0733 14.5477 35.9244 14.5477 43.225 21.6736L44.1039 22.5377C44.4724 22.8919 44.4724 23.4727 44.1039 23.8269L41.0986 26.7594C40.9143 26.9436 40.6166 26.9436 40.4323 26.7594L39.2273 25.5836C34.124 20.6111 25.8736 20.6111 20.7703 25.5836L19.4803 26.8444C19.296 27.0286 18.9983 27.0286 18.814 26.8444L15.8087 23.9119C15.4401 23.5577 15.4401 22.9769 15.8087 22.6227L16.7727 21.6736ZM49.4482 27.7369L52.1274 30.3436C52.496 30.6978 52.496 31.2786 52.1274 31.6328L40.0637 43.4053C39.6952 43.7595 39.0998 43.7595 38.7454 43.4053L30.1831 35.0469C30.098 34.9619 29.9421 34.9619 29.8571 35.0469L21.2948 43.4053C20.9262 43.7595 20.3308 43.7595 19.9764 43.4053L7.87018 31.6328C7.50161 31.2786 7.50161 30.6978 7.87018 30.3436L10.5494 27.7369C10.918 27.3827 11.5134 27.3827 11.8678 27.7369L20.4301 36.0953C20.5151 36.1803 20.671 36.1803 20.7561 36.0953L29.3184 27.7369C29.6869 27.3827 30.2823 27.3827 30.6367 27.7369L39.199 36.0953C39.284 36.1803 39.44 36.1803 39.525 36.0953L48.0873 27.7369C48.4842 27.3827 49.0796 27.3827 49.4482 27.7369Z" fill="white"/>
</svg>
