<svg width="99" height="96" viewBox="0 0 99 96" fill="none" xmlns="http://www.w3.org/2000/svg">
<g clip-path="url(#clip0_655_7972)">
<path d="M45.7565 2.97326C46.9011 1.92406 47.4733 1.39946 48.1227 1.20088C48.6945 1.02601 49.3055 1.02601 49.8773 1.20088C50.5267 1.39946 51.0989 1.92406 52.2435 2.97325L64.6365 14.3336C65.0335 14.6976 65.232 14.8795 65.4552 15.0214C65.6534 15.1473 65.8657 15.2495 66.0877 15.326C66.3378 15.4121 66.6038 15.4538 67.1359 15.5373L83.7447 18.1434C85.2786 18.3841 86.0456 18.5045 86.6057 18.8883C87.0989 19.2264 87.4799 19.7041 87.6997 20.2602C87.9493 20.8916 87.896 21.6662 87.7893 23.2152L86.6343 39.9875C86.5973 40.5248 86.5788 40.7934 86.6071 41.0564C86.6322 41.2899 86.6846 41.5196 86.7633 41.7408C86.8519 41.99 86.9851 42.224 87.2516 42.6921L95.5694 57.3022C96.3376 58.6516 96.7217 59.3263 96.7709 60.0035C96.8141 60.5999 96.6781 61.1956 96.3804 61.7142C96.0423 62.303 95.4035 62.7442 94.1259 63.6266L80.2927 73.1809C79.8495 73.487 79.628 73.6401 79.44 73.8261C79.2731 73.9913 79.1262 74.1755 79.0023 74.375C78.8627 74.5997 78.7628 74.8497 78.563 75.3499L72.3264 90.9623C71.7504 92.4042 71.4625 93.1252 70.9636 93.5858C70.5243 93.9915 69.9738 94.2566 69.3827 94.3471C68.7115 94.45 67.9683 94.2256 66.4818 93.7769L50.3871 88.9187C49.8715 88.7631 49.6137 88.6852 49.351 88.6543C49.1178 88.6268 48.8822 88.6268 48.649 88.6543C48.3863 88.6852 48.1285 88.7631 47.6129 88.9187L31.5182 93.7769C30.0317 94.2256 29.2885 94.45 28.6173 94.3471C28.0262 94.2566 27.4757 93.9915 27.0364 93.5858C26.5375 93.1252 26.2495 92.4042 25.6736 90.9623L19.437 75.3499C19.2372 74.8497 19.1373 74.5997 18.9977 74.375C18.8738 74.1755 18.7269 73.9913 18.56 73.8261C18.372 73.6401 18.1505 73.487 17.7073 73.1809L3.87406 63.6266C2.59648 62.7442 1.95769 62.303 1.6196 61.7142C1.32188 61.1956 1.18591 60.5999 1.22916 60.0035C1.27826 59.3263 1.66236 58.6516 2.43057 57.3023L10.7484 42.6921C11.0149 42.224 11.1481 41.99 11.2367 41.7408C11.3154 41.5196 11.3678 41.2899 11.3929 41.0564C11.4212 40.7934 11.4027 40.5248 11.3657 39.9875L10.2107 23.2152C10.104 21.6662 10.0507 20.8916 10.3003 20.2602C10.5201 19.7041 10.9011 19.2264 11.3943 18.8883C11.9544 18.5045 12.7214 18.3841 14.2553 18.1434L30.8641 15.5373C31.3962 15.4538 31.6622 15.4121 31.9123 15.326C32.1343 15.2495 32.3466 15.1473 32.5448 15.0214C32.768 14.8795 32.9665 14.6976 33.3635 14.3336L45.7565 2.97326Z" fill="white" fill-opacity="0.07"/>
<path fill-rule="evenodd" clip-rule="evenodd" d="M59 66H39C36.79 66 35 64.21 35 62V46C35 43.79 36.79 42 39 42H59C61.21 42 63 43.79 63 46V62C63 64.21 61.21 66 59 66Z" fill="#505050" stroke="#505050" stroke-width="3" stroke-linecap="round" stroke-linejoin="round"/>
<path d="M49 58.18V53" stroke="#2A2A2B" stroke-width="3" stroke-linecap="round" stroke-linejoin="round"/>
<path d="M50.0607 50.4393C50.6464 51.0251 50.6464 51.9749 50.0607 52.5607C49.4749 53.1464 48.5251 53.1464 47.9393 52.5607C47.3536 51.9749 47.3536 51.0251 47.9393 50.4393C48.5251 49.8536 49.4749 49.8536 50.0607 50.4393" stroke="#2A2A2B" stroke-width="3" stroke-linecap="round" stroke-linejoin="round"/>
<path d="M41 42V38V38C41 33.582 44.582 30 49 30V30C53.418 30 57 33.582 57 38V38V42" stroke="#505050" stroke-width="3" stroke-linecap="round" stroke-linejoin="round"/>
</g>
<defs>
<clipPath id="clip0_655_7972">
<rect width="99" height="96" fill="white"/>
</clipPath>
</defs>
</svg>
