<svg width="33" height="32" viewBox="0 0 33 32" fill="none" xmlns="http://www.w3.org/2000/svg">
<path fill-rule="evenodd" clip-rule="evenodd" d="M18.8405 2.66016C18.8405 1.27944 17.7212 0.160156 16.3405 0.160156C14.9598 0.160156 13.8405 1.27944 13.8405 2.66016V13.5009H2.99976C1.61904 13.5009 0.499756 14.6202 0.499756 16.0009C0.499756 17.3816 1.61904 18.5009 2.99976 18.5009H13.8405V29.3416C13.8405 30.7224 14.9598 31.8416 16.3405 31.8416C17.7212 31.8416 18.8405 30.7224 18.8405 29.3416V18.5009H29.6812C31.062 18.5009 32.1812 17.3816 32.1812 16.0009C32.1812 14.6202 31.062 13.5009 29.6812 13.5009H18.8405V2.66016Z" fill="#EBFF29"/>
</svg>
