<svg width="252" height="246" viewBox="0 0 252 246" fill="none" xmlns="http://www.w3.org/2000/svg">
<path d="M122.496 6.60747C124.478 4.79005 127.522 4.79004 129.504 6.60747L164.712 38.8814C166.832 40.8253 169.479 42.1001 172.321 42.5461L219.506 49.9499C222.163 50.3668 224.06 52.7459 223.875 55.4292L220.594 103.078C220.396 105.948 221.05 108.812 222.473 111.312L246.104 152.819C247.434 155.156 246.757 158.123 244.544 159.651L205.245 186.794C202.878 188.429 201.046 190.726 199.979 193.398L182.261 237.751C181.264 240.249 178.522 241.569 175.947 240.792L130.223 226.99C127.469 226.159 124.531 226.159 121.777 226.99L76.053 240.792C73.4782 241.569 70.7365 240.249 69.7387 237.751L52.0211 193.398C50.9539 190.726 49.122 188.429 46.7549 186.794L7.45585 159.651L4.77671 163.53L7.45585 159.651C5.24282 158.123 4.56567 155.156 5.89636 152.819L29.5267 111.312C30.95 108.812 31.6038 105.948 31.4062 103.078L28.1249 55.4292C27.9401 52.7459 29.8374 50.3668 32.4945 49.9499L79.6786 42.5461C82.5206 42.1001 85.1679 40.8253 87.2885 38.8813L122.496 6.60747L119.31 3.13234L122.496 6.60747Z" stroke="#EC336A" stroke-width="9.42857"/>
</svg>
