<svg width="24" height="21" viewBox="0 0 24 21" fill="none" xmlns="http://www.w3.org/2000/svg">
<path fill-rule="evenodd" clip-rule="evenodd" d="M4.39443 0.102539L0.0183876 9.29442C0.00173552 9.32861 -0.00354142 9.36723 0.00332849 9.40463C0.0101984 9.44203 0.0288548 9.47626 0.0565693 9.5023L11.8752 20.8274C11.9088 20.8596 11.9535 20.8776 12 20.8776C12.0465 20.8776 12.0912 20.8596 12.1248 20.8274L23.9434 9.503C23.9712 9.47696 23.9898 9.44274 23.9967 9.40534C24.0035 9.36794 23.9983 9.32932 23.9816 9.29513L19.6056 0.103246C19.5915 0.0723753 19.5687 0.0462243 19.5402 0.027918C19.5116 0.00961164 19.4783 -7.57261e-05 19.4444 1.36834e-05H4.55705C4.52295 -0.000410672 4.48944 0.00904334 4.46059 0.0272353C4.43173 0.0454272 4.40875 0.0715799 4.39443 0.102539Z" fill="#50AF95"/>
<path fill-rule="evenodd" clip-rule="evenodd" d="M13.5184 10.2383C13.4336 10.2447 12.9952 10.2708 12.0173 10.2708C11.2396 10.2708 10.6873 10.2475 10.4936 10.2383C7.48786 10.1061 5.24433 9.58284 5.24433 8.95638C5.24433 8.32991 7.48786 7.80739 10.4936 7.67305V9.71718C10.6902 9.73132 11.253 9.76456 12.0308 9.76456C12.9641 9.76456 13.4315 9.72567 13.5156 9.71789V7.67446C16.515 7.8081 18.7536 8.33133 18.7536 8.95638C18.7536 9.58142 16.5157 10.1047 13.5156 10.2376L13.5184 10.2383ZM13.5184 7.46305V5.63386H17.7043V2.84448H6.30776V5.63386H10.4929V7.46234C7.09119 7.6186 4.53302 8.29244 4.53302 9.09991C4.53302 9.90738 7.09119 10.5805 10.4929 10.7375V16.5991H13.5177V10.7354C16.9117 10.5791 19.4656 9.90597 19.4656 9.0992C19.4656 8.29244 16.9138 7.61931 13.5177 7.46234L13.5184 7.46305Z" fill="white"/>
</svg>
