<svg width="28" height="34" viewBox="0 0 28 34" fill="none" xmlns="http://www.w3.org/2000/svg">
<path fill-rule="evenodd" clip-rule="evenodd" d="M14.0895 1.2045C14.5289 0.765165 15.2412 0.765165 15.6805 1.2045L18.6805 4.2045C19.1198 4.64384 19.1198 5.35616 18.6805 5.7955L15.6805 8.7955C15.2412 9.23483 14.5289 9.23483 14.0895 8.7955C13.6502 8.35616 13.6502 7.64384 14.0895 7.2045L16.294 5L14.0895 2.7955C13.6502 2.35616 13.6502 1.64384 14.0895 1.2045Z" fill="#6850F3"/>
<path fill-rule="evenodd" clip-rule="evenodd" d="M13.9105 25.2045C14.3498 25.6438 14.3498 26.3562 13.9105 26.7955L11.706 29L13.9105 31.2045C14.3498 31.6438 14.3498 32.3562 13.9105 32.7955C13.4711 33.2348 12.7588 33.2348 12.3195 32.7955L9.3195 29.7955C8.88016 29.3562 8.88016 28.6438 9.3195 28.2045L12.3195 25.2045C12.7588 24.7652 13.4711 24.7652 13.9105 25.2045Z" fill="#6850F3"/>
<path fill-rule="evenodd" clip-rule="evenodd" d="M21.7175 7.75811C22.1585 7.32045 22.8708 7.32317 23.3084 7.76419C25.6597 10.1335 27.1239 13.3919 27.1239 17.0001C27.1239 24.2485 21.2472 30.1251 13.9989 30.1251C12.7064 30.1251 11.4641 29.931 10.2902 29.586C9.6941 29.4108 9.35287 28.7856 9.52805 28.1894C9.70323 27.5933 10.3285 27.2521 10.9246 27.4273C11.9047 27.7153 12.9334 27.8751 13.9989 27.8751C20.0046 27.8751 24.8739 23.0058 24.8739 17.0001C24.8739 14.0144 23.6651 11.3178 21.7114 9.34909C21.2737 8.90808 21.2764 8.19577 21.7175 7.75811Z" fill="#6850F3"/>
<path fill-rule="evenodd" clip-rule="evenodd" d="M14 6.125C7.99432 6.125 3.125 10.9943 3.125 17C3.125 19.9383 4.29243 22.6011 6.1893 24.5605C6.62145 25.0069 6.60989 25.7191 6.16348 26.1513C5.71707 26.5835 5.00485 26.5719 4.5727 26.1255C2.28757 23.7649 0.875 20.5477 0.875 17C0.875 9.75168 6.75168 3.875 14 3.875C15.2925 3.875 16.5348 4.06916 17.7087 4.41414C18.3048 4.58932 18.646 5.21458 18.4709 5.81069C18.2957 6.40681 17.6704 6.74804 17.0743 6.57286C16.0942 6.28484 15.0655 6.125 14 6.125Z" fill="#6850F3"/>
</svg>
