<svg width="78" height="75" viewBox="0 0 78 75" fill="none" xmlns="http://www.w3.org/2000/svg">
<path d="M36.9728 0.858285C38.1198 -0.193118 39.8802 -0.193119 41.0272 0.858284L51.6961 10.6382C52.1314 11.0373 52.6748 11.299 53.2582 11.3905L67.5565 13.6341C69.0936 13.8753 70.1912 15.2517 70.0843 16.8039L69.09 31.2429C69.0494 31.8321 69.1836 32.4201 69.4758 32.9333L76.6365 45.511C77.4063 46.8631 77.0146 48.5794 75.7343 49.4637L63.8255 57.6889C63.3396 58.0245 62.9636 58.496 62.7445 59.0444L57.3755 72.4849C56.7983 73.9299 55.2122 74.6937 53.7226 74.2441L39.8669 70.0617C39.3016 69.891 38.6984 69.891 38.1331 70.0617L24.2774 74.2441C22.7878 74.6937 21.2017 73.9299 20.6245 72.4849L15.2555 59.0444C15.0364 58.496 14.6604 58.0245 14.1745 57.6889L2.26567 49.4637C0.985401 48.5794 0.593667 46.8631 1.36348 45.511L8.52419 32.9333C8.81637 32.4201 8.95058 31.8321 8.91001 31.2429L7.91567 16.8039C7.80878 15.2517 8.90639 13.8753 10.4435 13.6341L24.7418 11.3905C25.3252 11.299 25.8686 11.0373 26.3039 10.6382L36.9728 0.858285Z" fill="#EBFF29"/>
</svg>
