<svg width="40" height="40" viewBox="0 0 40 40" fill="none" xmlns="http://www.w3.org/2000/svg">
<rect width="40" height="40" rx="12" fill="#6A16F9"/>
<path d="M26.1723 16.1128C25.7337 15.8754 25.1697 15.8754 24.6684 16.1128L21.1593 18.0712L18.7781 19.3175L15.3316 21.276C14.893 21.5134 14.329 21.5134 13.8277 21.276L11.1332 19.7329C10.6945 19.4956 10.3812 19.0208 10.3812 18.4866V15.5193C10.3812 15.0445 10.6319 14.5697 11.1332 14.273L13.8277 12.7893C14.2663 12.5519 14.8303 12.5519 15.3316 12.7893L18.0261 14.3323C18.4648 14.5697 18.7781 15.0445 18.7781 15.5786V17.5371L21.1593 16.2315V14.2137C21.1593 13.7389 20.9086 13.2641 20.4073 12.9674L15.3943 10.178C14.9556 9.94065 14.3916 9.94065 13.8903 10.178L8.75196 13.0267C8.25065 13.2641 8 13.7389 8 14.2137V19.7923C8 20.2671 8.25065 20.7418 8.75196 21.0386L13.8277 23.8279C14.2663 24.0653 14.8303 24.0653 15.3316 23.8279L18.7781 21.9288L21.1593 20.6231L24.6057 18.724C25.0444 18.4866 25.6084 18.4866 26.1097 18.724L28.8042 20.2077C29.2428 20.4451 29.5561 20.9199 29.5561 21.454V24.4214C29.5561 24.8961 29.3055 25.3709 28.8042 25.6677L26.1723 27.1513C25.7337 27.3887 25.1697 27.3887 24.6684 27.1513L21.9739 25.6677C21.5352 25.4303 21.2219 24.9555 21.2219 24.4214V22.5223L18.8407 23.8279V25.7864C18.8407 26.2611 19.0914 26.7359 19.5927 27.0326L24.6684 29.822C25.1071 30.0593 25.671 30.0593 26.1723 29.822L31.248 27.0326C31.6867 26.7953 32 26.3205 32 25.7864V20.1484C32 19.6736 31.7493 19.1988 31.248 18.9021L26.1723 16.1128Z" fill="white"/>
</svg>
