<svg width="40" height="40" viewBox="0 0 40 40" fill="none" xmlns="http://www.w3.org/2000/svg">
<rect width="40" height="40" rx="12" fill="#53AE94"/>
<path d="M17.5606 16.4225V13.4814H10.8348V9H29.1494V13.4814H22.4228V16.4202C27.8895 16.6713 32 17.7539 32 19.0509C32 20.3479 27.8876 21.4306 22.4228 21.6833V31.1043H17.559V21.6825C12.1022 21.4306 8 20.3487 8 19.0529C8 17.7571 12.1022 16.6752 17.559 16.4233M17.559 20.8845V20.8822C17.6962 20.8909 18.4013 20.9332 19.9711 20.9332C21.2262 20.9332 22.1092 20.8976 22.4204 20.8814V20.8853C27.2501 20.6714 30.8552 19.8303 30.8552 18.824C30.8552 17.8176 27.2497 16.9777 22.4204 16.7634V20.0474C22.1041 20.0692 21.1993 20.1226 19.9506 20.1226C18.4507 20.1226 17.6966 20.0601 17.5582 20.0474V16.7634C12.738 16.9781 9.1412 17.82 9.1412 18.8228C9.1412 19.8256 12.7396 20.6678 17.5582 20.8826" fill="white"/>
</svg>
