<svg width="24" height="24" viewBox="0 0 24 24" fill="none" xmlns="http://www.w3.org/2000/svg">
<g opacity="0.3">
<path d="M21.003 7.27476V10.4961H21.004C20.5373 10.4019 20.0539 10.4333 19.6034 10.5871C18.766 10.8734 18.1307 11.5645 17.9157 12.4229C17.7135 13.214 17.8879 14.0541 18.3884 14.6993C18.8888 15.3445 19.6592 15.7224 20.4757 15.7233C20.6531 15.723 20.8301 15.7052 21.004 15.6703V18.8916C21.004 19.4517 20.7815 19.9889 20.3855 20.385C19.9894 20.781 19.4522 21.0035 18.8921 21.0035H15.6707V21.0045C15.7649 20.5378 15.7335 20.0545 15.5797 19.6039C15.2934 18.7665 14.6024 18.1312 13.7439 17.9162C12.9528 17.714 12.1127 17.8884 11.4675 18.3889C10.8223 18.8894 10.4444 19.6597 10.4436 20.4763C10.4439 20.6536 10.4616 20.8306 10.4966 21.0045L7.27624 21.0035C6.11019 21.0037 5.16471 20.0586 5.16436 18.8926V15.6713C4.99046 15.7062 4.81353 15.724 4.63614 15.7243C3.81961 15.7234 3.04924 15.3455 2.54878 14.7003C2.04832 14.0551 1.87386 13.215 2.07608 12.4239C2.29111 11.5655 2.92641 10.8744 3.76378 10.5881C4.21435 10.4343 4.69768 10.4029 5.16436 10.4971H5.16336V7.27576C5.16332 6.71564 5.38581 6.17845 5.78187 5.78238C6.17794 5.38632 6.71513 5.16383 7.27524 5.16388H10.4966C10.4616 4.98997 10.4439 4.81304 10.4436 4.63566C10.4444 3.81913 10.8223 3.04876 11.4675 2.5483C12.1127 2.04783 12.9528 1.87338 13.7439 2.07559C14.602 2.29123 15.2928 2.9263 15.5797 3.76329C15.7335 4.21386 15.7649 4.69719 15.6707 5.16388H18.8921C19.4522 5.16383 19.9894 5.38632 20.3855 5.78238C20.7815 6.17845 21.004 6.71564 21.004 7.27576" stroke="white" stroke-width="1.5" stroke-linecap="round" stroke-linejoin="round"/>
</g>
</svg>
