<svg width="24" height="24" viewBox="0 0 24 24" fill="none" xmlns="http://www.w3.org/2000/svg">
<g opacity="0.3">
<path fill-rule="evenodd" clip-rule="evenodd" d="M17.196 5L20.66 11C21.017 11.619 21.017 12.381 20.66 13L17.196 19C16.839 19.619 16.178 20 15.464 20H8.53602C7.82102 20 7.16102 19.619 6.80402 19L3.34002 13C2.98302 12.381 2.98302 11.619 3.34002 11L6.80402 5C7.16102 4.381 7.82202 4 8.53602 4H15.465C16.179 4 16.839 4.381 17.196 5Z" stroke="white" stroke-width="1.5" stroke-linecap="round" stroke-linejoin="round"/>
<path d="M14.7995 9.20058C16.3455 10.7467 16.3455 13.2534 14.7995 14.7995C13.2534 16.3455 10.7467 16.3455 9.20058 14.7995C7.65449 13.2534 7.65449 10.7467 9.20058 9.20058C10.7467 7.65449 13.2534 7.65449 14.7995 9.20058" stroke="white" stroke-width="1.5" stroke-linecap="round" stroke-linejoin="round"/>
</g>
</svg>
